<?xml version="1.0" encoding="UTF-8"?>
<svg id="Layer_1" data-name="Layer 1" xmlns="http://www.w3.org/2000/svg" viewBox="0 0 1257.37 252.37">
  <defs>
    <style>
      .cls-1 {
        fill: #fff;
      }
    </style>
  </defs>
  <path class="cls-1" d="M0,158c1.35-4.72,2.33-8.58,5.51-12.46,6.32-7.69,15.67-10.2,25.3-8,13.86,3.17,15.76,17.23,22.44,27.42,17.25,26.29,53.38,42.15,84.24,32.33,8.15-2.59,21.02-10.26,13.39-20.09-9.26-11.92-53.51-22.31-69.63-29.66C40.27,128.86,6.37,84.45,31.42,39.18,56.18-5.55,118.57-10.58,158.32,16.95c13.28,9.2,39.77,35.3,41.25,51.76,1.57,17.45-17.64,27.51-32.58,19.59-6.6-3.5-9.33-9.27-14.15-14.14-15.47-15.62-48.6-34.63-68.16-15.36-14.38,14.17,2.78,30.33,15.3,37.47,21.38,12.2,46.47,16.49,68.79,29.54,60.92,35.61,43.38,105.81-22.01,120.01-59.89,13.01-124.38-22.57-144.84-79.91L.01,158.48v-.48h-.01Z"/>
  <path class="cls-1" d="M1257.29,227.47c-1.61,15.18-21.64,22.01-34.55,16.05-10.92-5.04-24.6-31.43-31.66-42.17-9.24-14.05-19.29-27.51-28.64-41.46-1.06-.22-8.88,4.12-9.19,5.15-1.84,14.53-1.88,29.43-4.56,43.83-3.17,17.02-10.07,30.9-29.83,29.13-25.57-2.29-22.79-32.09-20.33-50.47,5.62-42,10.54-84.65,17.29-126.47,2.04-12.67,6.93-42.09,14.81-51.33,10.25-12.02,27.84-7.85,32.48,6.83,5.91,18.71.72,52.55-1.31,72.68-.97,9.66-2.19,19.35-3.35,28.99.73.18,1.04-.29,1.58-.57,16.97-8.91,46.02-31.5,64.86-32.5,9.84-.53,21.56,4.33,17.56,16.09-4.57,13.42-30.65,28.69-42.59,36.05-.37.23-.82-.16-.62.81,6.85,7.15,12.72,15.17,18.62,23.09,11.81,15.85,22.44,32.6,33.89,48.57,2.52,3.51,5.16,10.07,5.55,14.34.09.95.1,2.41,0,3.35h-.01Z"/>
  <path class="cls-1" d="M450.13,126.38c13.31-13.07,26.39-27.23,41.31-38.52,7.66-5.79,16.83-12.36,27.13-9.94,24.06,5.66-5.92,38.82-13.5,47.03-2.8,3.03-8.25,7.26-10.33,10.28-.28.4-.66.5-.47,1.2,7.11,4.44,13.7,9.77,20.16,15.09,13.41,11.04,26.03,22.9,38.61,34.76,10.05,9.47,24.66,18.2,16.01,34.64-8.58,16.3-30.78,16.13-42.63,3.44-20.21-20.31-41.31-39.64-63.1-58.23-1.06,0-7.31,5.88-7.45,6.99,1.06,10.93,3.5,21.73,4.75,32.61,2.01,17.44,3.61,41.88-18.55,46.04-37.71,7.08-34.14-50.72-36.58-74.36-3.9-37.69-9.96-76.21-11.01-114.05-.3-10.59-1.95-24.74,2.29-34.56,6.37-14.75,24.59-16.39,33.39-2.99,3.74,5.7,5.86,13.03,7.82,19.5,5.6,26.73,8.09,54.06,12.14,81.07h.01Z"/>
  <path class="cls-1" d="M1013.99,193.45c-6.75,2.32-13.34,5.71-20.27,7.79-38.46,11.57-61.58-13.75-72-47.67-11.88-38.67,7.29-93.66,43.79-113.2,22.66-12.13,48.26-5.3,68.4,8.4,3.14-2.24,5.77-5.67,9.8-6.5,22.49-4.65,25,23.45,24.52,38.85-.88,28.24-5.33,57.55-9.07,85.33-1.67,12.39-2.29,26.89-10.23,37.22-11.49,14.97-32.29,6.97-34.95-10.22h0ZM995.65,79.08c-25.81,2.93-39.54,55.61-22.46,73.42,1.11,1.16,2.44,2.06,3.71,3.02,5.36-.87,10.41-2.97,15.34-5.11,5.81-2.52,12.86-5.89,18.4-8.94,1.09-.6,5.37-2.81,5.65-3.47,1.95-17.98,3.13-36.06,5.8-53.97-.44-1.29-12.69-4.17-14.72-4.48-3.82-.59-7.86-.93-11.72-.49v.02Z"/>
  <path class="cls-1" d="M281.69,160.87c18.86,12.16,39.83,7.94,56.37-5.76,5.64-4.67,9.42-10.98,17.34-11.91,13.18-1.55,27.82,10.26,23.25,24.17-4.03,12.27-21.68,26.88-32.81,32.87-73.16,39.4-153.62-36.03-115.26-110.28,15.86-30.71,51.21-51.99,86.24-44.4,43.33,9.39,52.82,59.26,20.32,87.54-16.09,14-35.73,18.41-54.26,26.79-.47.21-1.12.32-1.17.98h-.02ZM264.42,131.65l28.27-16.57c5.78-4.02,13.1-7.58,17.52-13.18,3.23-4.1,5.61-8.88,1.5-13.4-5.78-6.35-19.64-2.22-26.19,1.21-14.87,7.8-23.05,25.52-21.1,41.93h0Z"/>
  <path class="cls-1" d="M635.36,50.69l16.5.53c9.99,1.01,24.31,15.35,30.78,22.93,18.05,21.17,28.54,46.1,32.31,73.63,1.44,10.52,1.37,21.35,3.44,31.78,1.67,1.69,4.12-12.78,4.25-13.72,5.47-39.62-9.94-74.21-38.56-100.8-2.08-1.94-4.7-3.47-6.49-5.73,20.89,10,38.57,30.96,47.25,52.23,13.26,32.48,12.9,68.28-10.32,96.03-3.72,4.45-15.94,18.04-20.36,20.39-1,.53-2.05.85-3.12,1.2-8.22.55-16.48.18-24.64-.71-6.38-11-12.96-21.92-18.5-33.39-12.13-25.11-20.86-52.38-22.62-80.42-.15-2.36.62-11.89-.94-12.96-1.84-1.25-3.97,1.6-4.57,3.15-1.83,4.67-3.56,16.08-4.08,21.32-3.22,32.15,3.93,65.93,25.18,90.79l9.84,10.05c-12.01-3.58-24.89-9.83-34.29-18.22-4.02-3.59-5.62-8.66-7.46-13.63-5.95-16.1-8.5-35.08-7.69-52.25.3-6.25,2.49-14.4,2.42-20.11-.04-3.2-1.97-4.88-4.06-1.65-1.77,2.74-4.51,17.88-5,21.84-1.75,14.25-.59,28.13.41,42.34l-6.32-12.61c-14.43-30.68-15.57-72.67,7.52-99.5,4.39-5.1,15.12-16.88,20.16-20.59,7.58-5.6,10.92-.6,15.84,4.78,20.67,22.61,36.09,51.78,45.1,80.97,3.89,12.59,6.66,28.97,11.53,40.71.38.92,1.24,3.37,2.37,1.91,2.04-2.65,3.75-14.7,4.09-18.43,3.6-39.62-13.29-73.67-42.96-98.91-5.42-4.62-11.55-8.39-17.02-12.94h.01Z"/>
  <path class="cls-1" d="M836.91,70.81c7.56.38,15.24.84,22.73,1.98,6.75,1.03,14.98,2.38,20.62,6.24,11.33,7.75,11.96,20.59.96,29.06-10.86,8.37-29.47,2.98-42.17,2.46-.82-.03-1.76-.13-2.07.8l-3.36,93.29c.16.62.59.68,1.13.78,4.91.93,15.31-6.7,21.25-8.01,16.2-3.58,28.94,9.2,20.51,24.79-15.83,29.27-63.55,34.34-82.03,5.22-8.82-13.91-8.37-27.08-7.94-42.82.72-25.99,2.54-51.87,3.34-77.87-10.38-.45-19.57-.78-28.8-5.98-7.53-4.24-16.9-13.66-10.07-22.52s31.28-8.24,41.75-8.38c.59-11.21,1.45-22.13,4.07-33.07s8.18-27.02,22.83-24.69c6.72,1.07,10.03,6.79,12.34,12.59,5.83,14.67,4.95,30.62,4.91,46.12h0Z"/>
</svg>