<?xml version="1.0" encoding="UTF-8"?>
<svg id="Layer_1" xmlns="http://www.w3.org/2000/svg" version="1.1" viewBox="0 0 155.4 179.3">
  <!-- Generator: Adobe Illustrator 29.6.0, SVG Export Plug-In . SVG Version: 2.1.1 Build 207)  -->
  <defs>
    <style>
      .st0 {
        fill: #065598;
        stroke: #fff;
        stroke-miterlimit: 10;
      }
    </style>
  </defs>
  <path class="st0" d="M57,.5l16.5.5c10,1,24.3,15.4,30.8,22.9,18.1,21.2,28.5,46.1,32.3,73.6,1.4,10.5,1.4,21.3,3.4,31.8,1.7,1.7,4.1-12.8,4.2-13.7,5.5-39.6-9.9-74.2-38.6-100.8-2.1-1.9-4.7-3.5-6.5-5.7,20.9,10,38.6,31,47.2,52.2,13.3,32.5,12.9,68.3-10.3,96-3.7,4.4-15.9,18-20.4,20.4-1,.5-2.1.9-3.1,1.2-8.2.6-16.5.2-24.6-.7-6.4-11-13-21.9-18.5-33.4-12.1-25.1-20.9-52.4-22.6-80.4-.2-2.4.6-11.9-.9-13-1.8-1.2-4,1.6-4.6,3.2-1.8,4.7-3.6,16.1-4.1,21.3-3.2,32.2,3.9,65.9,25.2,90.8l9.8,10.1c-12-3.6-24.9-9.8-34.3-18.2-4-3.6-5.6-8.7-7.5-13.6-6-16.1-8.5-35.1-7.7-52.2.3-6.2,2.5-14.4,2.4-20.1,0-3.2-2-4.9-4.1-1.7-1.8,2.7-4.5,17.9-5,21.8-1.8,14.2-.6,28.1.4,42.3l-6.3-12.6C-4,91.9-5.2,49.9,17.9,23c4.4-5.1,15.1-16.9,20.2-20.6,7.6-5.6,10.9-.6,15.8,4.8,20.7,22.6,36.1,51.8,45.1,81,3.9,12.6,6.7,29,11.5,40.7.4.9,1.2,3.4,2.4,1.9,2-2.6,3.8-14.7,4.1-18.4,3.6-39.6-13.3-73.7-43-98.9-5.4-4.6-11.5-8.4-17-12.9h0,0Z"/>
</svg>